<svg xmlns="http://www.w3.org/2000/svg" width="119" height="42" viewBox="0 0 119 42">
  <defs>
    <style>
      .cls-1 {
        fill: #272c36;
        fill-rule: evenodd;
      }
    </style>
  </defs>
  <path id="Logotype_копия_2" data-name="Logotype копия 2" class="cls-1" d="M383.186,1034.51h-2.168v-2.5h-2.909v2.5h-3.576l5.82-8.04H377.12l-6.276,8.48v2.08h7.169v2.81h3v-2.81h2.168v-2.52Zm13.541,5.33-2.986-4.3a4.353,4.353,0,0,0,2.739-4.22,4.612,4.612,0,0,0-.7-2.57,4.51,4.51,0,0,0-2.006-1.68,7.289,7.289,0,0,0-3.072-.6h-5.762v13.37h3.081v-3.72h2.833l2.568,3.72h3.309Zm-3.366-8.52a2.131,2.131,0,0,1-.723,1.72,3.178,3.178,0,0,1-2.111.61h-2.51v-4.66h2.51a3.234,3.234,0,0,1,2.111.61,2.1,2.1,0,0,1,.723,1.72h0Zm8.615,6.04v-3.1h6.18v-2.4h-6.18v-2.9h7v-2.49h-10.06v13.37h10.307v-2.48h-7.245Zm19.645,2.48h3.233l-5.953-13.37h-3.043l-5.933,13.37h3.157l1.179-2.87h6.181Zm-6.371-5.21,2.111-5.12,2.111,5.12H415.25Zm10.992,5.21H436v-2.52h-6.675v-10.85h-3.081v13.37ZM347.428,1012l-25.92,24.18v-19.12L317,1012h30.428Zm-20.285,5.06v6.75l8.452-6.75h-8.452Zm26.625-5.06L317,1047.14h29.072l7.7,6.86v-42Zm-7.7,27.43H335.811l10.261-10.29v10.29Z" transform="translate(-317 -1012)"/>
</svg>
